<svg width="80" height="80" viewBox="0 0 80 80" fill="none" xmlns="http://www.w3.org/2000/svg">
<path d="M59.5944 17.7778L56.0242 57.7731L39.976 62.2222L23.9719 57.7794L20.4055 17.7778H59.5944Z" fill="#264DE4"/>
<path d="M52.9677 55.2264L56.0187 21.0485H40V58.8215L52.9677 55.2264Z" fill="#2965F1"/>
<path d="M28.5815 35.8845L29.0213 40.7905H40V35.8845H28.5815Z" fill="#EBEBEB"/>
<path d="M40 25.9545H39.983H27.698L28.144 30.8606H40V25.9545Z" fill="#EBEBEB"/>
<path d="M40 53.7303V48.6259L39.9785 48.6316L34.5147 47.1563L34.1654 43.2435H31.5103H29.2405L29.9278 50.9467L39.9775 53.7365L40 53.7303Z" fill="#EBEBEB"/>
<path d="M46.0241 40.7905L45.4547 47.1532L39.9829 48.6301V53.7342L50.0405 50.9467L50.1143 50.1179L51.2672 37.2019L51.3869 35.8845L52.2726 25.9545H39.9829V30.8606H46.896L46.4496 35.8845H39.9829V40.7905H46.0241Z" fill="#1E2235"/>
</svg>
