<svg width="48" height="48" viewBox="0 0 48 48" fill="none" xmlns="http://www.w3.org/2000/svg">
<path fill-rule="evenodd" clip-rule="evenodd" d="M48 24C48 37.2548 37.2548 48 24 48C10.7452 48 0 37.2548 0 24C0 10.7452 10.7452 0 24 0C37.2548 0 48 10.7452 48 24ZM12.9093 18C12.9093 14.508 15.6861 11.6667 19.0989 11.6667H31C30.5713 10.132 29.2043 9 27.569 9H12.5835C10.6067 9 9 10.644 9 12.6667V33.3333C9 35.356 10.6067 37 12.5835 37H12.9093V18ZM19.5588 15H34.4412C36.4044 15 38 16.6029 38 18.575V37.425C38 39.3971 36.4044 41 34.4412 41H19.5588C17.5956 41 16 39.3971 16 37.425V18.575C16 16.6029 17.5956 15 19.5588 15ZM22.1471 37.1H31.8529C32.3887 37.1 32.8235 36.6632 32.8235 36.125C32.8235 35.5868 32.3887 35.15 31.8529 35.15H22.1471C21.6113 35.15 21.1765 35.5868 21.1765 36.125C21.1765 36.6632 21.6113 37.1 22.1471 37.1ZM22.1471 31.9H31.8529C32.3887 31.9 32.8235 31.4632 32.8235 30.925C32.8235 30.3868 32.3887 29.95 31.8529 29.95H22.1471C21.6113 29.95 21.1765 30.3868 21.1765 30.925C21.1765 31.4632 21.6113 31.9 22.1471 31.9ZM22.1471 27.35H31.8529C32.3887 27.35 32.8235 26.9132 32.8235 26.375C32.8235 25.8368 32.3887 25.4 31.8529 25.4H22.1471C21.6113 25.4 21.1765 25.8368 21.1765 26.375C21.1765 26.9132 21.6113 27.35 22.1471 27.35ZM22.1471 22.15H31.8529C32.3887 22.15 32.8235 21.7132 32.8235 21.175C32.8235 20.6368 32.3887 20.2 31.8529 20.2H22.1471C21.6113 20.2 21.1765 20.6368 21.1765 21.175C21.1765 21.7132 21.6113 22.15 22.1471 22.15Z" fill="#D9D9D9"/>
</svg>
