<svg width="80" height="80" viewBox="0 0 80 80" fill="none" xmlns="http://www.w3.org/2000/svg">
<path d="M32.5927 62.2222C36.6816 62.2222 40.0001 58.9037 40.0001 54.8148V47.4074H32.5927C28.5038 47.4074 25.1853 50.726 25.1853 54.8148C25.1853 58.9037 28.5038 62.2222 32.5927 62.2222Z" fill="#0ACF83"/>
<path d="M25.1853 40C25.1853 35.9111 28.5038 32.5926 32.5927 32.5926H40.0001V47.4073H32.5927C28.5038 47.4073 25.1853 44.0888 25.1853 40Z" fill="#A259FF"/>
<path d="M25.1853 25.1852C25.1853 21.0963 28.5038 17.7778 32.5927 17.7778H40.0001V32.5926H32.5927C28.5038 32.5926 25.1853 29.2741 25.1853 25.1852Z" fill="#F24E1E"/>
<path d="M40 17.7778H47.4074C51.4963 17.7778 54.8148 21.0963 54.8148 25.1852C54.8148 29.2741 51.4963 32.5926 47.4074 32.5926H40V17.7778Z" fill="#FF7262"/>
<path d="M54.8148 40C54.8148 44.0888 51.4963 47.4073 47.4074 47.4073C43.3185 47.4073 40 44.0888 40 40C40 35.9111 43.3185 32.5926 47.4074 32.5926C51.4963 32.5926 54.8148 35.9111 54.8148 40Z" fill="#1ABCFE"/>
</svg>
