<svg width="89" height="89" viewBox="0 0 89 89" fill="none" xmlns="http://www.w3.org/2000/svg">
<path fill-rule="evenodd" clip-rule="evenodd" d="M21.4981 44.1906C21.4981 31.6578 31.6578 21.4981 44.1906 21.4981C56.7233 21.4981 66.883 31.6578 66.883 44.1906C66.883 56.7233 56.7233 66.883 44.1906 66.883C31.6578 66.883 21.4981 56.7233 21.4981 44.1906ZM44.1906 58.9207C36.0552 58.9207 29.4604 52.3258 29.4604 44.1906C29.4604 36.0552 36.0552 29.4604 44.1906 29.4604C52.3258 29.4604 58.9207 36.0552 58.9207 44.1906C58.9207 52.3258 52.3258 58.9207 44.1906 58.9207Z" fill="#1E2235"/>
<path d="M67.7795 25.9044C70.7082 25.9044 73.0825 23.5303 73.0825 20.6016C73.0825 17.6728 70.7082 15.2986 67.7795 15.2986C64.851 15.2986 62.4767 17.6728 62.4767 20.6016C62.4767 23.5303 64.851 25.9044 67.7795 25.9044Z" fill="#1E2235"/>
<path fill-rule="evenodd" clip-rule="evenodd" d="M44.1906 0C32.1891 0 30.6842 0.0508703 25.9708 0.265929C21.2673 0.480461 18.0549 1.22755 15.2441 2.32003C12.3381 3.44918 9.87374 4.9602 7.41688 7.41688C4.9602 9.87374 3.44918 12.3381 2.32003 15.2441C1.22755 18.0549 0.480461 21.2673 0.265929 25.9708C0.0508703 30.6842 0 32.1891 0 44.1906C0 56.192 0.0508703 57.6969 0.265929 62.4102C0.480461 67.1138 1.22755 70.3262 2.32003 73.137C3.44918 76.0429 4.9602 78.5073 7.41688 80.9642C9.87374 83.4209 12.3381 84.9319 15.2441 86.0612C18.0549 87.1535 21.2673 87.9006 25.9708 88.1151C30.6842 88.3302 32.1891 88.3811 44.1906 88.3811C56.192 88.3811 57.6969 88.3302 62.4102 88.1151C67.1138 87.9006 70.3262 87.1535 73.137 86.0612C76.0429 84.9319 78.5073 83.4209 80.9642 80.9642C83.4209 78.5073 84.9319 76.0429 86.0612 73.137C87.1535 70.3262 87.9006 67.1138 88.1151 62.4102C88.3302 57.6969 88.3811 56.192 88.3811 44.1906C88.3811 32.1891 88.3302 30.6842 88.1151 25.9708C87.9006 21.2673 87.1535 18.0549 86.0612 15.2441C84.9319 12.3381 83.4209 9.87374 80.9642 7.41688C78.5073 4.9602 76.0429 3.44918 73.137 2.32003C70.3262 1.22755 67.1138 0.480461 62.4102 0.265929C57.6969 0.0508703 56.192 0 44.1906 0ZM44.1906 7.96225C55.9899 7.96225 57.3876 8.00733 62.0473 8.21993C66.3559 8.41639 68.6957 9.1363 70.2529 9.74148C72.3156 10.5431 73.7876 11.5007 75.3339 13.0472C76.8804 14.5934 77.838 16.0655 78.6396 18.1282C79.2448 19.6854 79.9647 22.0252 80.1612 26.3338C80.3738 30.9935 80.4188 32.3912 80.4188 44.1906C80.4188 55.9899 80.3738 57.3876 80.1612 62.0473C79.9647 66.3558 79.2448 68.6957 78.6396 70.2529C77.838 72.3156 76.8804 73.7876 75.3339 75.3339C73.7876 76.8804 72.3156 77.838 70.2529 78.6396C68.6957 79.2448 66.3559 79.9647 62.0473 80.1612C57.3883 80.3738 55.9908 80.4188 44.1906 80.4188C32.3903 80.4188 30.993 80.3738 26.3338 80.1612C22.0252 79.9647 19.6854 79.2448 18.1282 78.6396C16.0655 77.838 14.5935 76.8804 13.0472 75.3339C11.5009 73.7876 10.5431 72.3156 9.74149 70.2529C9.13631 68.6957 8.4164 66.3558 8.21994 62.0473C8.00734 57.3876 7.96225 55.9899 7.96225 44.1906C7.96225 32.3912 8.00734 30.9935 8.21994 26.3338C8.4164 22.0252 9.13631 19.6854 9.74149 18.1282C10.5431 16.0655 11.5007 14.5934 13.0472 13.0472C14.5935 11.5007 16.0655 10.5431 18.1282 9.74148C19.6854 9.1363 22.0252 8.41639 26.3338 8.21993C30.9935 8.00733 32.3912 7.96225 44.1906 7.96225Z" fill="#1E2235"/>
</svg>
