<svg width="80" height="80" viewBox="0 0 80 80" fill="none" xmlns="http://www.w3.org/2000/svg">
<path d="M62.2223 17.7778H17.7778V62.2222H62.2223V17.7778Z" fill="#F7DF1E"/>
<path d="M47.6333 52.5002C48.5286 53.9619 49.6933 55.0363 51.7532 55.0363C53.4838 55.0363 54.5892 54.1714 54.5892 52.9764C54.5892 51.5443 53.4534 51.037 51.5487 50.2039L50.5046 49.7559C47.4908 48.472 45.4887 46.8635 45.4887 43.4631C45.4887 40.3309 47.8753 37.9464 51.6051 37.9464C54.2605 37.9464 56.1695 38.8705 57.5451 41.2903L54.2929 43.3785C53.5769 42.0945 52.8044 41.5887 51.6051 41.5887C50.3818 41.5887 49.6065 42.3647 49.6065 43.3785C49.6065 44.6314 50.3825 45.1386 52.1744 45.9146L53.2185 46.3619C56.767 47.8836 58.7705 49.4349 58.7705 52.9227C58.7705 56.6829 55.8167 58.7429 51.8499 58.7429C47.9712 58.7429 45.4654 56.8945 44.2393 54.472L47.6333 52.5002ZM32.8799 52.8621C33.536 54.0261 34.1328 55.0102 35.5677 55.0102C36.9398 55.0102 37.8054 54.4734 37.8054 52.3859V38.1848H41.9818V52.4423C41.9818 56.7668 39.4464 58.7351 35.7455 58.7351C32.4016 58.7351 30.4651 57.0046 29.4802 54.9203L32.8799 52.8621Z" fill="black"/>
</svg>
