<svg width="78" height="78" viewBox="0 0 78 78" fill="none" xmlns="http://www.w3.org/2000/svg">
<g clip-path="url(#clip0_32_181)">
<path d="M30.4775 29.8018L32.699 36.1709H28.2559L30.4775 29.8018Z" fill="#1E2235"/>
<path fill-rule="evenodd" clip-rule="evenodd" d="M0 33.3957C0 16.4503 17.3078 2.71875 38.6522 2.71875C59.9966 2.71875 77.3335 16.4649 77.3335 33.4103C77.3335 50.3556 60.0256 64.0872 38.6812 64.0872C36.3435 64.0872 34.0348 63.9265 31.8133 63.6052C31.6421 63.7252 31.4094 63.8888 31.1251 64.0887C27.6725 66.516 16.6052 74.297 15.4783 74.459C15.4783 74.459 14.9701 74.6489 14.549 74.4005C14.1279 74.1522 14.2005 73.4948 14.2005 73.4948L18.1209 59.398C7.23095 53.9492 0 44.3517 0 33.3957ZM17.2715 44.0885C17.2739 44.0885 17.2764 44.0885 17.2788 44.0885H17.2643C17.2667 44.0885 17.2691 44.0885 17.2715 44.0885ZM15.0427 41.9411C15.0427 43.122 16.0406 44.0847 17.2715 44.0885C18.4879 44.0846 19.5004 43.1075 19.5004 41.9411V28.6039H22.9852C24.1758 28.6039 25.1632 27.6252 25.1632 26.4127C25.1632 25.2003 24.1903 24.2215 22.9852 24.2215H11.5579C10.3673 24.2215 9.37994 25.2003 9.37994 26.4127C9.37994 27.6252 10.3528 28.6039 11.5579 28.6039H15.0427V41.9411ZM34.9787 43.0659C35.1965 43.6795 35.908 44.0593 36.8372 44.0593C37.3309 44.0593 37.8246 43.9716 38.2602 43.7671C38.87 43.5042 39.4654 42.7007 38.7829 40.5826L33.4541 26.4566C33.0911 25.3756 31.9295 24.2069 30.4775 24.2361C29.0255 24.2653 27.8784 25.3756 27.5009 26.4566L22.172 40.5826C21.4896 42.7007 22.0849 43.475 22.6948 43.7671C23.1449 43.957 23.624 44.0593 24.1177 44.0593C25.047 44.0593 25.7585 43.6795 25.9763 43.0659L27.0798 40.1443H33.8752L34.9787 43.0659ZM40.2349 41.722C40.2349 42.8468 41.2077 43.7671 42.3693 43.7671L49.5277 43.7233C50.7038 43.7233 51.6621 42.803 51.6621 41.6782C51.6621 40.5533 50.6893 39.633 49.5277 39.633H44.7942V26.4566C44.7942 25.2295 43.7778 24.2069 42.5145 24.2069C41.2513 24.2069 40.2349 25.2149 40.2349 26.4566V41.722ZM52.5188 26.4712V41.8096C52.5188 44.793 56.991 44.6807 56.991 41.7658V36.8721L57.7605 36.0979L62.9877 43.0659C63.6895 43.9911 65.1294 44.2346 66.1095 43.5042C67.1037 42.8071 67.2826 41.3278 66.5451 40.378L61.0566 33.074L66.1676 27.9612C66.9391 27.1713 66.7469 25.9146 66.0079 25.1711C65.2211 24.3795 63.9218 24.3189 63.2346 25.0104L56.991 31.2918V26.4712C56.991 25.2441 55.9746 24.2215 54.7549 24.2215C53.5352 24.2215 52.5188 25.2295 52.5188 26.4712Z" fill="#1E2235"/>
</g>
<defs>
<clipPath id="clip0_32_181">
<rect width="77.3335" height="77.3335" fill="white"/>
</clipPath>
</defs>
</svg>
