<svg width="434" height="60" viewBox="0 0 434 60" fill="none" xmlns="http://www.w3.org/2000/svg">
<rect width="60" height="60" rx="10" fill="black"/>
<path d="M8.40002 42L18.5133 17.4L21.9329 42L27.0623 29.7M41.2864 42L32.1917 17.4L27.0623 29.7M27.0623 29.7H48.9987M48.9987 29.7C48.9987 29.7 45.7246 29.4427 45.7246 35.7213C45.7246 42 48.9987 42 48.9987 42C48.9987 42 52.2 42 52.2 35.7213C52.2 29.4427 48.9987 29.7 48.9987 29.7Z" stroke="white" stroke-width="4" stroke-linecap="round" stroke-linejoin="round"/>
<path d="M74.25 47V12.0909H83.7273V26.2045H84.2045L94.7045 12.0909H105.75L93.9545 27.6364L106.023 47H94.7045L86.8636 33.9091L83.7273 38V47H74.25ZM118.04 12.0909V47H108.562V12.0909H118.04ZM122.531 12.0909H134.327L142.44 31.8636H142.849L150.963 12.0909H162.759V47H153.486V26.8182H153.213L145.44 46.7273H139.849L132.077 26.6818H131.804V47H122.531V12.0909ZM207.017 12.0909V47H199.108L186.494 28.6591H186.29V47H176.812V12.0909H184.858L197.267 30.3636H197.54V12.0909H207.017ZM220.568 47H210.341L221.864 12.0909H234.818L246.341 47H236.114L228.477 21.7045H228.205L220.568 47ZM218.659 33.2273H237.886V40.3182H218.659V33.2273ZM257.834 12.0909H268.402L275.22 26.2727H275.493L282.311 12.0909H292.879L280.061 36.0227V47H270.652V36.0227L257.834 12.0909ZM295.969 47V12.0909H321.128V19.7273H305.446V25.7273H319.832V33.3636H305.446V39.3636H321.06V47H295.969ZM359.646 29.5455C359.646 33.4318 358.891 36.7102 357.379 39.3807C355.868 42.0398 353.828 44.0568 351.26 45.4318C348.692 46.7955 345.828 47.4773 342.669 47.4773C339.487 47.4773 336.612 46.7898 334.044 45.4148C331.487 44.0284 329.453 42.0057 327.942 39.3466C326.442 36.6761 325.692 33.4091 325.692 29.5455C325.692 25.6591 326.442 22.3864 327.942 19.7273C329.453 17.0568 331.487 15.0398 334.044 13.6761C336.612 12.3011 339.487 11.6136 342.669 11.6136C345.828 11.6136 348.692 12.3011 351.26 13.6761C353.828 15.0398 355.868 17.0568 357.379 19.7273C358.891 22.3864 359.646 25.6591 359.646 29.5455ZM349.896 29.5455C349.896 27.4545 349.618 25.6932 349.061 24.2614C348.516 22.8182 347.703 21.7273 346.624 20.9886C345.555 20.2386 344.237 19.8636 342.669 19.8636C341.101 19.8636 339.777 20.2386 338.697 20.9886C337.629 21.7273 336.817 22.8182 336.26 24.2614C335.714 25.6932 335.442 27.4545 335.442 29.5455C335.442 31.6364 335.714 33.4034 336.26 34.8466C336.817 36.2784 337.629 37.3693 338.697 38.1193C339.777 38.858 341.101 39.2273 342.669 39.2273C344.237 39.2273 345.555 38.858 346.624 38.1193C347.703 37.3693 348.516 36.2784 349.061 34.8466C349.618 33.4034 349.896 31.6364 349.896 29.5455ZM394.236 12.0909V47H386.327L373.713 28.6591H373.509V47H364.031V12.0909H372.077L384.486 30.3636H384.759V12.0909H394.236ZM421.389 23.6136C421.241 23.0114 421.009 22.483 420.69 22.0284C420.372 21.5625 419.974 21.1705 419.497 20.8523C419.031 20.5227 418.486 20.2784 417.861 20.1193C417.247 19.9489 416.571 19.8636 415.832 19.8636C414.241 19.8636 412.884 20.2443 411.759 21.0057C410.645 21.767 409.793 22.8636 409.202 24.2955C408.622 25.7273 408.332 27.4545 408.332 29.4773C408.332 31.5227 408.611 33.2727 409.168 34.7273C409.724 36.1818 410.554 37.2955 411.656 38.0682C412.759 38.8409 414.128 39.2273 415.764 39.2273C417.207 39.2273 418.406 39.017 419.361 38.5966C420.327 38.1761 421.048 37.5795 421.526 36.8068C422.003 36.0341 422.241 35.125 422.241 34.0795L423.878 34.25H415.901V27.5H431.378V32.3409C431.378 35.5227 430.702 38.2443 429.349 40.5057C428.009 42.7557 426.156 44.483 423.793 45.6875C421.44 46.8807 418.741 47.4773 415.696 47.4773C412.298 47.4773 409.315 46.7557 406.747 45.3125C404.179 43.8693 402.173 41.8125 400.73 39.142C399.298 36.4716 398.582 33.2955 398.582 29.6136C398.582 26.7273 399.02 24.1705 399.895 21.9432C400.781 19.7159 402.009 17.8352 403.577 16.3011C405.145 14.7557 406.957 13.5909 409.014 12.8068C411.071 12.0114 413.276 11.6136 415.628 11.6136C417.696 11.6136 419.616 11.9091 421.389 12.5C423.173 13.0795 424.747 13.9091 426.111 14.9886C427.486 16.0568 428.594 17.3239 429.435 18.7898C430.276 20.2557 430.787 21.8636 430.969 23.6136H421.389Z" fill="black"/>
</svg>
