<svg width="78" height="78" viewBox="0 0 78 78" fill="none" xmlns="http://www.w3.org/2000/svg">
<path d="M65.8923 65.893H54.4339V47.9483C54.4339 43.6692 54.3575 38.1607 48.4743 38.1607C42.5064 38.1607 41.5933 42.8229 41.5933 47.6367V65.8918H30.1349V28.9902H41.1349V34.0332H41.2889C43.5319 30.1981 47.7024 27.9075 52.1422 28.0723C63.7557 28.0723 65.897 35.7114 65.897 45.6494L65.8923 65.893ZM17.206 23.946C13.5336 23.9466 10.556 20.9701 10.5553 17.2976C10.5547 13.6251 13.5312 10.6475 17.2036 10.6468C20.876 10.6461 23.8536 13.6227 23.8542 17.2952C23.8546 19.0588 23.1543 20.7503 21.9075 21.9975C20.6607 23.2448 18.9695 23.9457 17.206 23.946ZM22.9352 65.893H11.4649V28.9902H22.9352V65.893ZM71.6047 0.00576641H5.70701C2.59255 -0.0293811 0.0384986 2.46542 0.000488281 5.57992V71.7524C0.0371972 74.8684 2.59104 77.3657 5.70701 77.333H71.6047C74.7269 77.3717 77.2907 74.8746 77.3339 71.7524V5.57515C77.2894 2.4545 74.7254 -0.0401656 71.6047 0.000489943" fill="#1E2235"/>
</svg>
