<svg width="78" height="58" viewBox="0 0 78 58" fill="none" xmlns="http://www.w3.org/2000/svg">
<path d="M70.5366 0H6.79688C3.04304 0 0 3.33865 0 7.45715V50.5429C0 54.6614 3.04304 58.0001 6.79688 58.0001H70.5366C74.2904 58.0001 77.3334 54.6614 77.3334 50.5429V7.45715C77.3334 3.33865 74.2904 0 70.5366 0ZM40.8086 38.8952C40.1128 39.3307 39.2589 39.3305 38.5634 38.8952C37.4304 38.1861 7.81607 17.3096 6.3692 16.4042C5.2823 15.7242 4.90394 14.2059 5.52382 13.0136C6.144 11.8209 7.52754 11.406 8.61444 12.0861C9.53625 12.6629 38.6464 33.2233 39.6859 33.874C40.7242 33.2241 68.3863 11.4535 69.3105 10.875C70.397 10.1948 71.781 10.6099 72.4011 11.8025C73.021 12.9948 72.6428 14.5129 71.5557 15.1932C70.4687 15.8735 41.5045 38.4597 40.8086 38.8952Z" fill="#1E2235"/>
</svg>
