<svg width="80" height="80" viewBox="0 0 80 80" fill="none" xmlns="http://www.w3.org/2000/svg">
<path d="M56.048 42.4952C54.4974 42.5033 53.1499 42.8767 52.0215 43.4287C51.6075 42.6088 51.1934 41.8782 51.1204 41.3424C51.0392 40.7173 50.9418 40.3358 51.0392 39.5889C51.1366 38.8421 51.575 37.7786 51.5669 37.6974C51.5587 37.6163 51.4694 37.2347 50.5765 37.2266C49.6835 37.2185 48.9123 37.3971 48.823 37.6325C48.7337 37.8679 48.5632 38.4037 48.4496 38.9557C48.2953 39.7675 46.6636 42.6656 45.7301 44.1837C45.4297 43.5911 45.1699 43.0715 45.1131 42.6575C45.0319 42.0324 44.9345 41.6509 45.0319 40.904C45.1293 40.1572 45.5677 39.0937 45.5596 39.0126C45.5515 38.9314 45.4622 38.5498 44.5692 38.5417C43.6762 38.5336 42.905 38.7122 42.8157 38.9476C42.7264 39.183 42.629 39.7351 42.4423 40.2708C42.2556 40.8066 40.0881 45.6449 39.5198 46.8951C39.2276 47.5364 38.9759 48.0478 38.7973 48.3969C38.7973 48.3969 38.7892 48.4213 38.7649 48.4618C38.6106 48.7622 38.5213 48.9246 38.5213 48.9246C38.5213 48.9246 38.5213 48.9246 38.5213 48.9327C38.3996 49.1519 38.2697 49.3548 38.2047 49.3548C38.156 49.3548 38.0667 48.7703 38.221 47.9748C38.5457 46.2944 39.3169 43.6804 39.3088 43.5911C39.3088 43.5424 39.4549 43.0878 38.8054 42.8523C38.1722 42.6169 37.9449 43.0066 37.8881 43.0066C37.8313 43.0066 37.7907 43.1446 37.7907 43.1446C37.7907 43.1446 38.497 40.2059 36.4431 40.2059C35.1605 40.2059 33.3908 41.6103 32.514 42.8767C31.962 43.1771 30.7849 43.8184 29.5266 44.5084C29.0477 44.7763 28.5525 45.0442 28.0898 45.2958C28.0573 45.2634 28.0248 45.2228 27.9923 45.1903C25.5082 42.5357 20.9135 40.6605 21.1083 37.0967C21.1814 35.7979 21.6279 32.3883 29.9325 28.2482C36.7678 24.8792 42.2069 25.8128 43.1486 27.8828C44.4961 30.8378 40.2342 36.3255 33.1716 37.1211C30.4764 37.4214 29.0639 36.3823 28.7067 35.9927C28.3333 35.5868 28.2765 35.5624 28.1385 35.6436C27.9112 35.7654 28.0573 36.1307 28.1385 36.3418C28.3495 36.8938 29.2182 37.8679 30.6875 38.3469C31.9864 38.769 35.1443 39.0044 38.9678 37.527C43.246 35.8709 46.5906 31.268 45.6083 27.412C44.626 23.4992 38.1317 22.2084 31.9864 24.3921C28.3333 25.691 24.3717 27.7367 21.5223 30.3994C18.1371 33.5654 17.6014 36.3174 17.8206 37.4701C18.608 41.5616 24.25 44.2243 26.5068 46.1969C26.3931 46.2619 26.2876 46.3187 26.1983 46.3674C25.0699 46.9276 20.7674 49.1762 19.6958 51.5548C18.4781 54.2499 19.8906 56.182 20.8242 56.4418C23.7223 57.2455 26.7016 55.8005 28.3008 53.4138C29.9001 51.0271 29.7052 47.9261 28.9665 46.5054C28.9584 46.4892 28.9503 46.473 28.934 46.4567C29.2263 46.2862 29.5266 46.1076 29.8189 45.9372C30.3953 45.5962 30.9635 45.2796 31.4506 45.0198C31.1746 45.7748 30.9716 46.6759 30.8742 47.9748C30.7524 49.5009 31.3775 51.4817 32.1974 52.261C32.5627 52.602 32.993 52.6101 33.269 52.6101C34.2269 52.6101 34.6572 51.8146 35.1361 50.8729C35.7206 49.7201 36.2483 48.3807 36.2483 48.3807C36.2483 48.3807 35.5907 52.0013 37.3767 52.0013C38.0261 52.0013 38.6837 51.157 38.9759 50.7268C38.9759 50.7349 38.9759 50.7349 38.9759 50.7349C38.9759 50.7349 38.9922 50.7105 39.0246 50.6537C39.0896 50.5482 39.1302 50.4832 39.1302 50.4832C39.1302 50.4832 39.1302 50.4751 39.1302 50.467C39.3899 50.0124 39.9744 48.9814 40.8431 47.2685C41.9633 45.0604 43.043 42.3003 43.043 42.3003C43.043 42.3003 43.1404 42.9741 43.4733 44.0944C43.6681 44.7519 44.074 45.4744 44.3987 46.1726C44.1389 46.5379 43.9766 46.7408 43.9766 46.7408C43.9766 46.7408 43.9766 46.7408 43.9847 46.749C43.7736 47.025 43.5463 47.3253 43.2947 47.6176C42.4098 48.6729 41.3545 49.8825 41.2084 50.2316C41.0379 50.6456 41.0785 50.9459 41.4032 51.1895C41.6386 51.3681 42.0607 51.3924 42.491 51.3681C43.2866 51.3112 43.8467 51.1164 44.1227 50.9947C44.553 50.8404 45.0563 50.605 45.5271 50.2559C46.3957 49.6146 46.9234 48.6973 46.8747 47.4877C46.8503 46.822 46.6312 46.1564 46.3633 45.5313C46.4444 45.4176 46.5175 45.304 46.5987 45.1903C47.9706 43.1852 49.0341 40.9852 49.0341 40.9852C49.0341 40.9852 49.1315 41.659 49.4643 42.7793C49.6267 43.3475 49.9595 43.9645 50.2518 44.5652C48.961 45.6124 48.1654 46.8301 47.8813 47.6257C47.3699 49.1032 47.7677 49.7688 48.5226 49.9231C48.8636 49.9961 49.3507 49.8338 49.7079 49.6795C50.1625 49.5334 50.6982 49.2818 51.2097 48.9083C52.0783 48.267 52.9144 47.374 52.8657 46.1645C52.8414 45.6125 52.6953 45.0685 52.4923 44.5409C53.5882 44.0863 55.0008 43.8346 56.8029 44.0457C60.6671 44.5003 61.4302 46.9113 61.2841 47.9261C61.1379 48.9408 60.3261 49.4928 60.0582 49.6633C59.7903 49.8338 59.7011 49.8906 59.7254 50.0124C59.7579 50.191 59.8878 50.1829 60.1151 50.1504C60.4317 50.0936 62.1446 49.3305 62.2176 47.4633C62.3394 45.0767 60.0664 42.4708 56.048 42.4952ZM26.2389 52.5452C24.9562 53.9415 23.1703 54.4691 22.3991 54.0226C21.571 53.5437 21.8958 51.4817 23.4706 50.0043C24.4286 49.1032 25.6625 48.267 26.4824 47.7556C26.6691 47.6419 26.9451 47.4796 27.278 47.2766C27.3348 47.2442 27.3673 47.2279 27.3673 47.2279C27.4322 47.1873 27.4971 47.1467 27.5621 47.1062C28.1385 49.2168 27.5864 51.0758 26.2389 52.5452ZM35.5745 46.1969C35.128 47.2847 34.1945 50.0692 33.6262 49.915C33.1391 49.7851 32.8388 47.6744 33.5288 45.5881C33.8779 44.5409 34.6166 43.2907 35.0468 42.8036C35.745 42.0243 36.5162 41.7645 36.7029 42.0811C36.9383 42.4952 35.8505 45.515 35.5745 46.1969ZM43.2784 49.8825C43.0917 49.9799 42.9131 50.0448 42.832 49.9961C42.7751 49.9637 42.9131 49.8338 42.9131 49.8338C42.9131 49.8338 43.8792 48.7947 44.2607 48.3238C44.4799 48.0478 44.7397 47.7231 45.0157 47.3578C45.0157 47.3903 45.0157 47.4309 45.0157 47.4633C45.0157 48.7054 43.8142 49.5415 43.2784 49.8825ZM49.2208 48.5268C49.0828 48.4294 49.1071 48.1047 49.5698 47.0899C49.7484 46.6921 50.1706 46.0265 50.8931 45.3851C50.9743 45.6449 51.0311 45.8966 51.023 46.132C51.0148 47.6988 49.8946 48.2833 49.2208 48.5268Z" fill="#F472B6"/>
</svg>
