<svg width="404" height="500" viewBox="0 0 404 500" fill="none" xmlns="http://www.w3.org/2000/svg">
<g clip-path="url(#clip0_271_2160)">
<path d="M380.391 312.637C380.022 329.025 379.921 345.497 380.996 361.868C381.954 376.71 384.543 391.216 378.357 405.402C367.886 429.388 344.741 449.457 324.823 465.677C314.418 474.182 302.888 472.401 300.282 458.197C296.921 439.708 300.988 417.168 302.972 398.561C305.274 376.862 308.182 355.162 308.451 333.294C308.855 298.417 300.316 262.985 289.962 229.889C281.558 202.743 271.221 176.203 262.447 149.208C255.807 128.803 242.714 99.9933 247.47 78.3104C254.479 46.3744 299.022 15.6991 331.512 25.4648C356.641 33.0453 377.282 57.2663 385.451 81.4872C399.755 123.928 385.451 173.698 384.308 217.434C383.467 249.067 381.131 280.818 380.391 312.637Z" fill="black"/>
<path d="M377.87 312.637C377.273 331.475 377.66 350.332 379.03 369.13C379.736 377.702 380.526 386.493 378.912 395.015C377.366 403.083 373.466 410.445 369.012 417.286C360.339 430.548 348.842 441.809 336.958 452.197C334.034 454.752 331.059 457.239 328.067 459.761C325.438 462.177 322.591 464.343 319.562 466.232C315.158 468.669 309.477 469.392 305.93 465.207C304.081 462.754 302.921 459.853 302.568 456.802C301.899 452.774 301.539 448.7 301.493 444.616C301.444 436.075 301.961 427.54 303.039 419.068C305.039 401.368 307.275 383.77 308.989 365.97C311.053 347.519 311.396 328.916 310.014 310.401C308.23 292.179 304.958 274.134 300.232 256.446C290.786 220.089 276.935 185.246 265.304 149.595C260.615 135.241 254.765 121.222 251.37 106.481C249.521 99.2503 248.767 91.7826 249.134 84.3278C249.672 78.1829 251.456 72.212 254.379 66.7798C260.658 55.3493 269.709 45.6797 280.701 38.6594C291.374 31.6166 303.913 26.4564 316.822 26.053C330.689 25.616 343.715 31.9864 354.271 40.6428C365.839 50.2109 374.936 62.421 380.795 76.243C394.023 107.473 389.014 143.359 385.283 175.984C384.324 184.388 383.366 192.793 382.677 201.197C381.954 209.92 381.753 218.661 381.45 227.418C380.778 246.495 379.769 265.573 378.845 284.567C378.425 293.895 378.072 303.207 377.853 312.536C377.853 315.78 382.896 315.78 382.896 312.536C383.366 292.719 384.442 272.918 385.383 253.101C386.291 234.377 386.358 215.568 388.09 196.894C391.3 162.117 398.679 126.298 390.897 91.6059C384.257 61.9726 363.129 32.9277 333.412 23.2797C307.594 14.8754 278.448 29.8181 261.136 48.6436C252.362 58.2076 245.453 69.9734 244.159 83.084C242.613 98.6822 247.773 114.566 252.799 129.122C258.446 145.494 263.976 161.915 269.725 178.27C276.179 196.658 282.768 214.996 288.483 233.62C294.213 251.746 298.767 270.224 302.115 288.937C305.363 307.801 306.491 326.97 305.476 346.085C304.434 365.264 302.114 384.409 299.862 403.469C297.828 420.547 294.937 437.977 297.274 455.172C298.114 461.425 300.013 468.417 306.081 471.594C311.393 474.384 317.612 473.073 322.587 470.165C325.683 468.164 328.612 465.916 331.344 463.442C334.437 460.887 337.491 458.293 340.505 455.659C346.749 450.259 352.713 444.542 358.372 438.532C369.247 426.883 380.475 412.63 383.669 396.645C385.451 387.787 384.862 378.761 384.123 369.836C383.327 360.255 382.851 350.663 382.694 341.06C382.56 331.546 382.694 322.033 382.896 312.485C382.997 309.275 377.954 309.275 377.87 312.637Z" fill="black"/>
<path d="M164.252 265.892C186.498 259.662 210.053 259.86 232.191 266.464C264.363 275.692 310.098 285.995 315.023 322.738C321.074 367.701 320.604 454.466 289.811 486.217C264.598 512.287 238.427 464.786 204.088 467.728C174.925 470.215 120.735 522.053 109.961 482.855C102.767 456.668 97.0182 385.047 89.925 351.229C81.3527 310.183 127.576 276.667 164.252 265.892Z" fill="white"/>
<path d="M164.924 268.33C184.105 262.935 204.333 262.444 223.754 266.901C230.981 268.582 238.108 270.733 245.235 272.767C251.689 274.616 258.11 276.549 264.447 278.784C276.498 283.037 288.785 288.416 298.366 297.089C302.869 301.064 306.532 305.898 309.14 311.309C311.444 316.763 312.824 322.563 313.225 328.47C316.317 355.644 316.452 383.073 313.628 410.277C312.327 424.103 309.687 437.771 305.745 451.088C302.383 462.063 297.761 473.207 290.248 482.015C286.886 486.032 282.751 489.68 277.524 491.008C272.952 491.939 268.206 491.465 263.909 489.646C253 485.662 243.621 478.099 233.402 472.72C223.182 467.341 211.265 463.391 199.381 465.913C188.624 468.182 178.539 473.762 168.857 478.771C158.772 484.032 148.486 489.814 137.459 493.125C129.979 495.395 120.802 496.622 115.743 489.612C113.02 485.814 112.045 481.074 111.036 476.603C109.843 471.157 108.885 465.677 108.011 460.181C105.742 446.112 103.977 431.96 102.178 417.824C100.329 403.2 98.5309 388.56 96.3795 373.971C95.4718 367.819 94.5137 361.667 93.3539 355.481C92.1942 349.296 91.0176 343.026 91.6731 336.505C93.0178 322.806 100.75 310.502 110.162 300.77C120.555 290.283 132.743 281.744 146.149 275.557C152.229 272.649 158.529 270.227 164.991 268.313C168.084 267.388 166.773 262.531 163.647 263.455C149.286 267.721 135.717 274.301 123.475 282.936C111.44 291.34 100.329 302.014 93.3371 315.107C89.9902 321.276 87.7972 328.003 86.8659 334.958C86.2332 341.792 86.71 348.682 88.2778 355.364C90.8831 368.81 92.648 382.358 94.4129 395.905C96.4131 411.268 98.262 426.665 100.363 442.011C102.044 454.449 103.725 466.955 106.532 479.191C108.616 488.217 112.532 497.68 122.668 499.546C132.803 501.412 143.645 496.706 152.738 492.503C163.899 487.36 174.589 481.141 185.733 476.065C190.437 473.808 195.367 472.056 200.44 470.837C205.943 469.704 211.636 469.9 217.047 471.409C229.233 474.619 239.604 482.267 250.361 488.503C259.387 493.73 270.397 499.143 280.936 495.226C291.828 491.209 299.055 479.931 303.896 470.014C309.51 457.821 313.467 444.933 315.662 431.691C320.974 403.015 321.663 373.365 319.713 344.287C319.293 338.202 318.755 332.134 318.032 326.083C317.463 319.622 315.726 313.317 312.905 307.476C306.955 295.862 296.097 287.693 284.684 281.86C272.33 275.54 258.95 271.422 245.638 267.624C238.074 265.472 230.511 263.119 222.796 261.539C212.793 259.469 202.582 258.583 192.372 258.9C182.641 259.242 172.988 260.777 163.63 263.472C163.031 263.683 162.534 264.112 162.238 264.673C161.942 265.234 161.868 265.886 162.031 266.499C162.195 267.112 162.583 267.641 163.119 267.981C163.656 268.32 164.3 268.445 164.924 268.33Z" fill="black"/>
<path d="M199.903 334.941C279.272 334.941 343.614 270.599 343.614 191.229C343.614 111.859 279.272 47.5174 199.903 47.5174C120.533 47.5174 56.1906 111.859 56.1906 191.229C56.1906 270.599 120.533 334.941 199.903 334.941Z" fill="white"/>
<path d="M199.902 50.0387C227.827 50.0387 255.125 58.3194 278.344 73.8336C301.563 89.3478 319.659 111.399 330.346 137.198C341.032 162.997 343.828 191.386 338.38 218.774C332.932 246.163 319.485 271.32 299.739 291.066C279.994 310.812 254.836 324.259 227.447 329.707C200.059 335.155 171.67 332.359 145.871 321.673C120.072 310.986 98.0209 292.889 82.5067 269.671C66.9925 246.452 58.7118 219.154 58.7118 191.229C58.7518 153.796 73.6401 117.906 100.11 91.4367C126.58 64.967 162.469 50.0787 199.902 50.0387ZM199.902 44.9961C170.98 44.9961 142.708 53.5726 118.66 69.6409C94.6117 85.7092 75.8686 108.548 64.8006 135.268C53.7325 161.989 50.8366 191.392 56.4791 219.758C62.1215 248.125 76.0489 274.181 96.5 294.632C116.951 315.083 143.007 329.01 171.374 334.653C199.74 340.295 229.143 337.399 255.864 326.331C282.584 315.263 305.423 296.52 321.491 272.472C337.559 248.424 346.136 220.152 346.136 191.229C346.136 152.446 330.729 115.251 303.305 87.8269C275.881 60.4028 238.686 44.9961 199.902 44.9961Z" fill="black"/>
<path d="M273.002 327.041C297.694 302.333 338.74 281.944 374.374 287.642C383.097 289.038 392.157 292.483 397.048 299.829C401.335 306.3 401.604 314.956 399.149 322.217C396.695 329.479 391.787 335.899 386.325 341.413C366.44 361.482 339.076 372.206 311.998 380.274" fill="white"/>
<path d="M274.784 328.823C286.661 317.096 300.466 307.499 315.595 300.45C330.722 293.374 347.531 288.769 364.339 289.239C372.239 289.458 380.66 290.584 387.636 294.568C391.22 296.555 394.134 299.561 396.01 303.206C397.886 306.85 398.639 310.968 398.175 315.04C397.469 323.965 392.073 331.765 386.089 338.101C380.1 344.369 373.379 349.894 366.071 354.557C349.262 365.348 330.42 372.172 311.41 377.836C308.317 378.761 309.628 383.635 312.754 382.694C330.941 377.265 349.077 370.794 365.398 360.843C373.309 356.106 380.642 350.466 387.249 344.035C393.973 337.446 400.208 329.529 402.377 320.2C404.444 311.494 402.982 301.946 396.763 295.223C390.913 288.903 382.156 286.079 373.87 284.886C356.137 282.348 338.001 285.794 321.495 292.349C302.721 299.778 285.643 310.927 271.288 325.125C270.843 325.603 270.6 326.235 270.612 326.888C270.623 327.542 270.888 328.165 271.35 328.627C271.812 329.089 272.435 329.353 273.088 329.365C273.741 329.376 274.373 329.134 274.851 328.689L274.784 328.823Z" fill="black"/>
<path d="M108.263 300.097C76.327 314.082 42.3068 344.858 34.6085 380.139C32.726 388.762 32.6252 398.444 37.7013 405.688C42.1723 412.042 50.0387 415.403 57.8714 415.773C65.7041 416.143 73.2847 413.89 80.4115 410.815C106.364 399.62 126.315 378.055 143.695 355.784" fill="white"/>
<path d="M106.986 297.912C90.8977 305.074 76.2045 315.027 63.5862 327.31C51.0976 339.412 40.4747 353.968 34.7262 370.508C31.8183 378.828 29.9358 387.921 31.4485 396.729C32.1901 401.045 34.0388 405.096 36.8141 408.484C39.5894 411.872 43.1962 414.482 47.2821 416.059C56.3754 419.74 66.4941 418.546 75.5706 415.403C84.4957 412.206 92.9482 407.819 100.699 402.36C118.18 390.275 132.383 374.239 145.393 357.599C147.359 355.061 143.813 351.464 141.813 354.019C130.904 368.003 119.188 381.534 105.322 392.678C98.5787 398.14 91.2502 402.836 83.4706 406.68C75.0664 410.798 65.4688 414.277 55.9384 413.134C47.9712 412.193 40.3066 407.604 37.4492 399.822C34.5917 392.04 36.1381 383.013 38.5081 375.113C43.2481 359.364 52.9129 345.379 64.309 333.698C77.2348 320.441 92.5762 309.778 109.507 302.283C112.482 300.988 109.91 296.635 106.969 297.929L106.986 297.912Z" fill="black"/>
<path d="M176.724 118.365C176.119 118.701 175.53 119.054 174.925 119.424C144.065 137.913 117.34 164.437 102.38 197.516C84.2774 237.57 87.9248 281.709 95.4214 323.865C101.64 358.893 110.028 393.989 108.868 429.556C108.431 441.877 105.59 454.483 95.4214 462.4C89.0846 467.274 81.5208 469.98 73.957 472.031C60.2582 475.695 43.2817 482.032 35.9196 466.787C31.1796 456.97 31.1796 445.457 28.6752 435.019C24.036 415.622 19.5818 396.174 15.6991 376.609C8.23612 338.875 2.87423 300.602 2.52126 262.094C2.0002 210.105 17.4471 156.016 44.0212 111.44C66.1411 74.3268 97.8082 42.6262 137.258 24.3386C174.656 7.02592 234.108 -6.63932 273.876 10.2027C291.794 17.7833 294.803 33.1294 285.642 49.5344C263.186 89.9418 213.568 96.9678 176.724 118.365Z" fill="black"/>
<path d="M175.446 116.18C141.191 136.148 111.473 166.403 97.0182 203.852C80.63 246.277 86.9332 292.567 95.0852 336.017C99.5563 359.885 104.464 383.787 105.943 408.092C106.599 418.782 107.255 430.111 105.053 440.666C102.985 450.667 97.8082 458.634 88.7989 463.66C80.7645 468.148 71.3181 470.384 62.4097 472.501C55.888 474.048 47.4334 475.628 41.8698 470.821C38.2896 467.694 36.6592 462.803 35.4658 458.332C34.2169 452.961 33.2408 447.531 32.5411 442.061C30.709 430.531 27.4986 419.185 24.8933 407.789C14.1695 360.423 5.59722 312.2 5.04255 263.455C4.75423 219.6 14.4511 176.255 33.3983 136.703C50.711 100.279 75.7219 67.0488 108.902 43.7019C124.382 32.917 141.292 24.346 159.142 18.2371C177.588 11.6618 196.789 7.43766 216.291 5.66444C234.679 4.13487 253.807 5.04253 271.12 11.7659C278.667 14.7074 285.76 19.6827 287.676 28.0028C289.592 36.323 285.995 44.307 281.827 51.0976C263.422 81.1678 227.737 91.942 197.264 105.338C189.785 108.539 182.49 112.152 175.413 116.163C174.835 116.502 174.416 117.056 174.248 117.704C174.079 118.352 174.175 119.04 174.513 119.617C174.852 120.194 175.406 120.613 176.054 120.782C176.702 120.951 177.39 120.855 177.968 120.516C208.105 103.136 244.277 96.0601 270.616 72.2762C277.172 66.4011 282.764 59.5324 287.189 51.9212C291.458 44.5423 294.349 36.0036 292.702 27.4313C289.206 9.19421 266.598 3.66424 250.966 1.41191C231.267 -1.42871 211.131 0.268937 191.616 4.13487C172.826 7.8503 154.529 13.7275 137.089 21.6492C100.01 38.4577 69.4356 67.4858 47.2989 101.422C23.1953 138.801 7.77929 181.109 2.18512 225.233C-0.806782 248.596 -0.386572 272.061 1.44555 295.425C3.50934 320.245 6.92654 344.934 11.6819 369.382C14.035 381.837 16.7244 394.241 19.4306 406.612C22.0527 418.378 25.4312 430.144 27.4314 441.91C29.1122 451.995 29.6669 463.996 36.3902 472.317C41.4328 478.485 49.2487 479.662 56.7284 478.704C60.8484 478.094 64.9205 477.195 68.9145 476.014C73.5873 474.72 78.2936 473.544 82.8319 471.863C92.4463 468.316 101.069 462.769 105.893 453.575C110.717 444.381 111.389 434.212 111.457 424.177C111.477 411.944 110.663 399.724 109.019 387.602C102.968 340.539 88.2274 293.929 92.5976 245.924C94.5007 223.6 101.48 202.006 113.003 182.792C123.791 165.3 137.577 149.846 153.73 137.14C161.407 131.023 169.519 125.473 178.001 120.533C178.578 120.194 178.998 119.64 179.166 118.992C179.335 118.345 179.239 117.656 178.9 117.079C178.562 116.502 178.007 116.083 177.36 115.914C176.712 115.745 176.024 115.841 175.446 116.18Z" fill="black"/>
<path d="M155.646 266.867C155.646 266.867 165.445 278.885 201.583 278.448C237.721 278.011 246.479 266.867 246.479 266.867" fill="white"/>
<path d="M155.646 266.867C155.646 266.867 165.445 278.885 201.583 278.448C237.721 278.011 246.479 266.867 246.479 266.867" stroke="black" stroke-width="3" stroke-miterlimit="10" stroke-linecap="round"/>
<path d="M237.721 160.134C237.721 160.134 239.402 157.999 267.977 156.772C287.306 155.932 294.87 160.134 294.87 160.134" fill="white"/>
<path d="M237.721 160.134C237.721 160.134 239.402 157.999 267.977 156.772C287.306 155.932 294.87 160.134 294.87 160.134" stroke="black" stroke-width="5" stroke-miterlimit="10" stroke-linecap="round"/>
<path d="M120.062 160.134C120.062 160.134 121.743 157.999 150.318 156.772C169.647 155.932 177.211 160.134 177.211 160.134" fill="white"/>
<path d="M120.062 160.134C120.062 160.134 121.743 157.999 150.318 156.772C169.647 155.932 177.211 160.134 177.211 160.134" stroke="black" stroke-width="5" stroke-miterlimit="10" stroke-linecap="round"/>
<path d="M123.424 178.623C132.051 175.478 141.137 173.774 150.318 173.581C155.529 173.724 160.664 174.865 165.445 176.942" fill="white"/>
<path d="M123.424 178.623C132.051 175.478 141.137 173.774 150.318 173.581C155.529 173.724 160.664 174.865 165.445 176.942" stroke="black" stroke-width="3" stroke-miterlimit="10" stroke-linecap="round"/>
<path d="M123.29 173.446C132.156 171.055 141.355 170.135 150.519 170.723C155.693 171.322 160.706 172.897 165.294 175.362" stroke="black" stroke-miterlimit="10" stroke-linecap="round"/>
<path d="M246.126 178.623C252.96 175.384 260.414 173.664 267.977 173.581C274.7 173.765 284.903 175.53 288.147 176.942" fill="white"/>
<path d="M246.126 178.623C252.96 175.384 260.414 173.664 267.977 173.581C274.7 173.765 284.903 175.53 288.147 176.942" stroke="black" stroke-width="3" stroke-miterlimit="10" stroke-linecap="round"/>
<path d="M246.126 175.261C252.96 172.023 260.414 170.302 267.977 170.219C274.7 170.404 284.903 172.169 288.147 173.581" stroke="black" stroke-miterlimit="10" stroke-linecap="round"/>
<path d="M145.275 190.389C148.988 190.389 151.998 187.379 151.998 183.666C151.998 179.952 148.988 176.942 145.275 176.942C141.562 176.942 138.552 179.952 138.552 183.666C138.552 187.379 141.562 190.389 145.275 190.389Z" fill="black"/>
<path d="M145.275 179.463C146.106 179.463 146.919 179.71 147.61 180.172C148.301 180.633 148.839 181.29 149.157 182.058C149.475 182.825 149.559 183.67 149.397 184.485C149.234 185.301 148.834 186.049 148.246 186.637C147.659 187.225 146.91 187.625 146.095 187.787C145.28 187.949 144.435 187.866 143.667 187.548C142.899 187.23 142.243 186.691 141.781 186C141.319 185.309 141.073 184.497 141.073 183.666C141.073 182.551 141.516 181.482 142.304 180.694C143.092 179.906 144.161 179.463 145.275 179.463ZM145.275 174.421C143.447 174.421 141.659 174.963 140.139 175.979C138.619 176.995 137.434 178.439 136.734 180.128C136.035 181.817 135.851 183.676 136.208 185.469C136.565 187.262 137.445 188.91 138.738 190.203C140.031 191.495 141.678 192.376 143.472 192.733C145.265 193.089 147.124 192.906 148.813 192.206C150.502 191.507 151.946 190.322 152.962 188.802C153.978 187.281 154.52 185.494 154.52 183.666C154.52 181.214 153.546 178.862 151.812 177.129C150.078 175.395 147.727 174.421 145.275 174.421Z" fill="black"/>
<path d="M267.977 190.389C271.69 190.389 274.7 187.379 274.7 183.666C274.7 179.952 271.69 176.942 267.977 176.942C264.263 176.942 261.253 179.952 261.253 183.666C261.253 187.379 264.263 190.389 267.977 190.389Z" fill="black"/>
<path d="M267.977 179.463C268.808 179.463 269.62 179.71 270.311 180.172C271.002 180.633 271.541 181.29 271.859 182.058C272.177 182.825 272.26 183.67 272.098 184.485C271.936 185.301 271.536 186.049 270.948 186.637C270.36 187.225 269.611 187.625 268.796 187.787C267.981 187.949 267.136 187.866 266.369 187.548C265.601 187.23 264.944 186.691 264.483 186C264.021 185.309 263.774 184.497 263.774 183.666C263.774 182.551 264.217 181.482 265.005 180.694C265.793 179.906 266.862 179.463 267.977 179.463ZM267.977 174.421C266.148 174.421 264.361 174.963 262.841 175.979C261.32 176.995 260.135 178.439 259.436 180.128C258.736 181.817 258.553 183.676 258.91 185.469C259.266 187.262 260.147 188.91 261.44 190.203C262.733 191.495 264.38 192.376 266.173 192.733C267.966 193.089 269.825 192.906 271.514 192.206C273.204 191.507 274.647 190.322 275.663 188.802C276.679 187.281 277.221 185.494 277.221 183.666C277.221 181.214 276.247 178.862 274.514 177.129C272.78 175.395 270.428 174.421 267.977 174.421Z" fill="black"/>
<path d="M278.902 195.112C279.125 195.112 279.339 195.024 279.496 194.866C279.654 194.708 279.742 194.495 279.742 194.272C279.742 194.049 279.654 193.835 279.496 193.677C279.339 193.52 279.125 193.431 278.902 193.431C278.679 193.431 278.465 193.52 278.308 193.677C278.15 193.835 278.062 194.049 278.062 194.272C278.062 194.495 278.15 194.708 278.308 194.866C278.465 195.024 278.679 195.112 278.902 195.112Z" fill="black"/>
<path d="M202.995 213.114C201.617 221.669 198.961 226.729 196.658 229.922C195.919 230.914 194.44 232.763 194.978 234.208C195.768 236.125 199.751 236.326 203.113 236.175" stroke="black" stroke-width="3" stroke-miterlimit="10" stroke-linecap="round"/>
</g>
<defs>
<clipPath id="clip0_271_2160">
<rect width="403.2" height="500" fill="white"/>
</clipPath>
</defs>
</svg>
